HIERARCHY
ROOT Hips
{
	OFFSET 0.000000 0.000000 0.000000
	CHANNELS 6 Xposition Yposition Zposition Xrotation Yrotation Zrotation
	JOINT Spine
	{
		OFFSET 0.000000 0.042231 0.063346
		CHANNELS 3 Xrotation Yrotation Zrotation
		JOINT Spine1
		{
			OFFSET 0.000000 0.014667 0.083179
			CHANNELS 3 Xrotation Yrotation Zrotation
			JOINT Spine2
			{
				OFFSET 0.000000 0.007361 0.084141
				CHANNELS 3 Xrotation Yrotation Zrotation
				JOINT Spine3
				{
					OFFSET 0.000000 0.000000 0.084462
					CHANNELS 3 Xrotation Yrotation Zrotation
					JOINT Neck
					{
						OFFSET 0.000000 -0.031673 0.221713
						CHANNELS 3 Xrotation Yrotation Zrotation
						JOINT Head
						{
							OFFSET 0.000000 -0.020167 0.114371
							CHANNELS 3 Xrotation Yrotation Zrotation
							End Site
							{
								OFFSET 0.000000 0.000000 0.000000
							}
						}
					}
					JOINT RightShoulder
					{
						OFFSET -0.029161 -0.048602 0.157470
						CHANNELS 3 Xrotation Yrotation Zrotation
						JOINT RightArm
						{
							OFFSET -0.144834 -0.000000 0.000000
							CHANNELS 3 Xrotation Yrotation Zrotation
							JOINT RightForeArm
							{
								OFFSET -0.274949 -0.000000 0.000000
								CHANNELS 3 Xrotation Yrotation Zrotation
								JOINT RightHand
								{
									OFFSET -0.254725 -0.000000 0.000000
									CHANNELS 3 Xrotation Yrotation Zrotation
									JOINT RightHandEnd
									{
										OFFSET -0.068160 -0.000000 0.000000
										CHANNELS 3 Xrotation Yrotation Zrotation
										End Site
										{
											OFFSET 0.000000 0.000000 0.000000
										}
									}
									JOINT RightHandThumb1
									{
										OFFSET -0.027264 -0.045440 -0.018176
										CHANNELS 3 Xrotation Yrotation Zrotation
										End Site
										{
											OFFSET 0.000000 0.000000 0.000000
										}
									}
								}
							}
						}
					}
					JOINT LeftShoulder
					{
						OFFSET 0.029161 -0.048602 0.157470
						CHANNELS 3 Xrotation Yrotation Zrotation
						JOINT LeftArm
						{
							OFFSET 0.144834 0.000000 0.000000
							CHANNELS 3 Xrotation Yrotation Zrotation
							JOINT LeftForeArm
							{
								OFFSET 0.274949 0.000000 0.000000
								CHANNELS 3 Xrotation Yrotation Zrotation
								JOINT LeftHand
								{
									OFFSET 0.254725 0.000000 0.000000
									CHANNELS 3 Xrotation Yrotation Zrotation
									JOINT LeftHandEnd
									{
										OFFSET 0.068160 0.000000 0.000000
										CHANNELS 3 Xrotation Yrotation Zrotation
										End Site
										{
											OFFSET 0.000000 0.000000 0.000000
										}
									}
									JOINT LeftHandThumb1
									{
										OFFSET 0.027264 -0.045440 -0.018176
										CHANNELS 3 Xrotation Yrotation Zrotation
										End Site
										{
											OFFSET 0.000000 0.000000 0.000000
										}
									}
								}
							}
						}
					}
				}
			}
		}
	}
	JOINT RightUpLeg
	{
		OFFSET -0.086512 0.000000 -0.025273
		CHANNELS 3 Xrotation Yrotation Zrotation
		JOINT RightLeg
		{
			OFFSET 0.000000 0.000000 -0.433119
			CHANNELS 3 Xrotation Yrotation Zrotation
			JOINT RightFoot
			{
				OFFSET 0.000000 0.000000 -0.404688
				CHANNELS 3 Xrotation Yrotation Zrotation
				JOINT RightToeBase
				{
					OFFSET 0.000000 -0.126496 -0.046041
					CHANNELS 3 Xrotation Yrotation Zrotation
					End Site
					{
						OFFSET 0.000000 0.000000 0.000000
					}
				}
			}
		}
	}
	JOINT LeftUpLeg
	{
		OFFSET 0.086512 0.000000 -0.025273
		CHANNELS 3 Xrotation Yrotation Zrotation
		JOINT LeftLeg
		{
			OFFSET 0.000000 0.000000 -0.433119
			CHANNELS 3 Xrotation Yrotation Zrotation
			JOINT LeftFoot
			{
				OFFSET 0.000000 0.000000 -0.404688
				CHANNELS 3 Xrotation Yrotation Zrotation
				JOINT LeftToeBase
				{
					OFFSET 0.000000 -0.126496 -0.046041
					CHANNELS 3 Xrotation Yrotation Zrotation
					End Site
					{
						OFFSET 0.000000 0.000000 0.000000
					}
				}
			}
		}
	}
}
MOTION
Frames: 7
Frame Time: 0.033333
0.408841 -0.750131 0.909185 17.387100 -2.499300 -172.518500 7.105400 3.684900 -2.506900 4.258800 -0.018100 -0.131000 5.727300 -2.925400 -0.853000 1.954700 -0.896900 1.297700 3.778800 -1.352300 1.182700 -4.115900 3.405400 4.074300 10.998000 -9.704100 -1.732900 52.783400 -42.963200 45.967100 0.000000 0.000000 29.243200 -13.564200 16.028700 0.713300 0.000000 0.000000 0.000000 0.000000 0.000000 0.000000 11.598400 4.222600 -3.355600 50.136400 25.685900 -47.990900 0.000000 0.000000 -39.346800 -11.475700 -10.466200 -1.022200 0.000000 0.000000 0.000000 0.000000 0.000000 0.000000 -50.165800 7.141900 -0.552700 33.143300 0.000000 0.000000 -14.089900 11.914300 -25.767900 -14.817600 0.000000 0.000000 10.897000 1.943800 15.537300 11.658100 0.000000 0.000000 -8.081800 -6.797400 12.164000 -0.375800 0.000000 0.000000 
0.409865 -0.751523 0.909909 16.958300 -2.952500 -172.579300 6.798200 3.528800 -2.381600 4.072000 -0.068900 -0.101200 5.637300 -2.923200 -0.361400 1.926900 -0.934500 1.409500 3.734400 -1.438500 0.942300 -3.835000 3.209800 3.567900 11.030300 -9.786300 -1.580700 53.158900 -42.588800 46.198000 0.000000 0.000000 29.186700 -13.704300 15.690400 0.770500 0.000000 0.000000 0.000000 0.000000 0.000000 0.000000 11.594200 4.329700 -3.194500 50.140200 26.021000 -47.896000 0.000000 0.000000 -39.361500 -11.345200 -10.543700 -0.914700 0.000000 0.000000 0.000000 0.000000 0.000000 0.000000 -50.645900 6.793700 0.394000 37.015100 0.000000 0.000000 -15.410100 14.780100 -27.581100 -15.873500 0.000000 0.000000 10.289000 1.404100 16.005000 11.768000 0.000000 0.000000 -8.144200 -6.346700 11.801100 -0.370200 0.000000 0.000000 
0.410881 -0.752676 0.910674 16.589400 -3.325000 -172.722700 6.536800 3.451100 -2.248200 3.900800 -0.090700 -0.066200 5.549200 -2.859700 0.158400 1.900700 -0.970700 1.519600 3.754900 -1.566500 0.728100 -3.530400 2.958700 3.099100 11.015300 -9.897700 -1.407600 53.652700 -41.963700 46.604700 0.000000 0.000000 28.978500 -13.435300 15.230400 0.726100 0.000000 0.000000 0.000000 0.000000 0.000000 0.000000 11.607800 4.407100 -3.010100 50.106800 26.466400 -47.645900 0.000000 0.000000 -39.266600 -11.839900 -10.795800 -0.923300 0.000000 0.000000 0.000000 0.000000 0.000000 0.000000 -50.797100 6.578700 1.046600 40.089200 0.000000 0.000000 -15.478200 16.337200 -28.950900 -15.173400 0.000000 0.000000 9.799100 0.943300 16.552600 11.829800 0.000000 0.000000 -8.167600 -5.746600 11.331300 -0.300800 0.000000 0.000000 
0.411858 -0.753631 0.911560 16.278200 -3.628000 -172.703900 6.305100 3.415400 -2.100500 3.747200 -0.087400 -0.037600 5.483200 -2.749400 0.502900 1.871500 -0.966800 1.568300 3.884700 -1.805400 0.487200 -3.158400 2.666900 2.715400 10.907300 -10.083300 -1.294800 54.008000 -41.429100 46.964900 0.000000 0.000000 28.782300 -13.006700 14.877100 0.619900 0.000000 0.000000 0.000000 0.000000 0.000000 0.000000 11.655800 4.478900 -2.843600 50.095900 26.751300 -47.248500 0.000000 0.000000 -38.971100 -12.356600 -10.956200 -0.940000 0.000000 0.000000 0.000000 0.000000 0.000000 0.000000 -50.691100 6.657300 1.607100 42.320300 0.000000 0.000000 -14.865800 15.904000 -29.769000 -12.824100 0.000000 0.000000 9.463000 0.545100 16.945800 11.708800 0.000000 0.000000 -8.083000 -5.210500 10.794500 -0.235900 0.000000 0.000000 
0.412778 -0.754317 0.912432 16.015900 -3.896500 -172.628400 6.083800 3.398100 -1.959600 3.601900 -0.083200 -0.015400 5.449400 -2.587100 0.756700 1.850300 -0.925700 1.575300 4.099200 -2.097400 0.235400 -2.770400 2.391600 2.383500 10.765500 -10.275100 -1.251000 54.037800 -41.222400 47.088000 0.000000 0.000000 28.806300 -12.860200 14.800600 0.559800 0.000000 0.000000 0.000000 0.000000 0.000000 0.000000 11.734100 4.573500 -2.689100 50.188500 26.754800 -46.832000 0.000000 0.000000 -38.392500 -12.380400 -10.888000 -0.820100 0.000000 0.000000 0.000000 0.000000 0.000000 0.000000 -50.475000 6.861500 2.191100 43.849400 0.000000 0.000000 -12.889600 12.929200 -29.928100 -8.647600 0.000000 0.000000 9.295800 0.221300 17.249000 11.365900 0.000000 0.000000 -7.922700 -4.935700 10.259100 -0.226100 0.000000 0.000000 
0.413545 -0.754624 0.913067 15.847500 -4.143900 -172.726700 5.911700 3.402600 -1.867700 3.487100 -0.100400 0.006300 5.403000 -2.389200 1.090700 1.851900 -0.881400 1.592500 4.378000 -2.302300 0.059200 -2.464700 2.181600 2.062500 10.670000 -10.341500 -1.218400 53.780700 -41.335900 46.968700 0.000000 0.000000 29.092400 -13.163700 15.039800 0.652800 0.000000 0.000000 0.000000 0.000000 0.000000 0.000000 11.813800 4.697400 -2.498300 50.469500 26.527200 -46.591900 0.000000 0.000000 -37.462700 -12.207800 -10.704600 -0.641000 0.000000 0.000000 0.000000 0.000000 0.000000 0.000000 -50.134700 6.965800 2.684400 44.620400 0.000000 0.000000 -8.027200 8.204300 -29.468200 -2.643200 0.000000 0.000000 9.290200 0.001500 17.489000 10.953500 0.000000 0.000000 -7.775500 -4.993400 9.926100 -0.231600 0.000000 0.000000 
0.414142 -0.754677 0.913376 15.782300 -4.429300 -173.066800 5.799100 3.394700 -1.826200 3.427300 -0.151000 0.025900 5.333500 -2.208500 1.506500 1.868900 -0.860000 1.633300 4.684000 -2.334300 0.024100 -2.274000 2.048000 1.797200 10.616700 -10.231700 -1.144100 53.395400 -41.589700 46.728400 0.000000 0.000000 29.491300 -13.736500 15.387800 0.891300 0.000000 0.000000 0.000000 0.000000 0.000000 0.000000 11.889200 4.835400 -2.249000 50.880500 26.284900 -46.587900 0.000000 0.000000 -36.227300 -12.310500 -10.569600 -0.534600 0.000000 0.000000 0.000000 0.000000 0.000000 0.000000 -49.698600 6.885000 2.782800 44.803000 0.000000 0.000000 -0.274700 2.266400 -26.978800 3.931000 0.000000 0.000000 9.315100 -0.185600 17.543300 10.738800 0.000000 0.000000 -7.718800 -5.363000 9.994500 -0.211300 0.000000 0.000000 
